<?xml version="1.0" encoding="UTF-8"?>
<svg xmlns="http://www.w3.org/2000/svg" xmlns:xlink="http://www.w3.org/1999/xlink" width="300px" height="107px" viewBox="0 0 637 107" version="1.1">
<g id="surface1">
<path style=" stroke:none;fill-rule:nonzero;fill:rgb(91.764706%,0%,16.862746%);fill-opacity:1;" d="M 76 12 C 82.601562 12 89.199219 12 96 12 C 96.328125 22.558594 96.660156 33.121094 97 44 C 99.476562 40.761719 101.949219 37.523438 104.5 34.1875 C 105.722656 32.621094 105.722656 32.621094 106.96875 31.023438 C 111.421875 25.371094 111.421875 25.371094 115 19.15625 C 116.65625 15.875 118.101562 14.242188 121 12 C 123.769531 11.417969 123.769531 11.417969 126.8125 11.351562 C 128.445312 11.3125 128.445312 11.3125 130.109375 11.273438 C 135.089844 11.332031 140.039062 11.582031 145 12 C 142.429688 16.660156 139.1875 20.601562 135.8125 24.6875 C 134.640625 26.121094 133.464844 27.550781 132.292969 28.984375 C 131.726562 29.675781 131.160156 30.363281 130.574219 31.078125 C 124.9375 37.960938 119.445312 44.960938 114 52 C 114.550781 52.734375 114.550781 52.734375 115.113281 53.480469 C 117.6875 56.914062 120.261719 60.347656 122.824219 63.789062 C 128.6875 71.648438 134.636719 79.425781 140.722656 87.109375 C 141.851562 88.539062 141.851562 88.539062 143 90 C 143.597656 90.746094 144.195312 91.496094 144.808594 92.265625 C 146 94 146 94 146 96 C 125.25 98.839844 125.25 98.839844 118.71875 94.476562 C 114.757812 90.367188 112.070312 85.480469 109.394531 80.476562 C 107.167969 76.519531 104.433594 72.980469 101.6875 69.375 C 100.773438 68.132812 99.859375 66.890625 98.949219 65.648438 C 98.304688 64.773438 97.664062 63.902344 97 63 C 96.984375 63.636719 96.972656 64.269531 96.957031 64.925781 C 96.882812 67.824219 96.785156 70.726562 96.6875 73.625 C 96.664062 74.625 96.640625 75.625 96.617188 76.652344 C 96.390625 82.929688 95.914062 87.804688 91.5 92.644531 C 85.75 97.121094 83.835938 97 76 97 C 76 68.949219 76 40.898438 76 12 Z M 76 12 "/>
<path style=" stroke:none;fill-rule:nonzero;fill:rgb(99.607843%,47.450981%,0%);fill-opacity:1;" d="M 268.335938 41.734375 C 270.332031 43.253906 271.046875 44.707031 272 47 C 272.890625 46.507812 273.785156 46.011719 274.703125 45.503906 C 275.886719 44.855469 277.066406 44.210938 278.25 43.5625 C 278.835938 43.238281 279.421875 42.910156 280.027344 42.578125 C 286.300781 39.15625 292.035156 37.921875 299.121094 39.460938 C 305.128906 41.390625 308.070312 44.492188 311.121094 50.035156 C 312.453125 54.523438 312.246094 58.894531 312.195312 63.550781 C 312.191406 64.566406 312.191406 65.578125 312.1875 66.625 C 312.175781 69.851562 312.152344 73.082031 312.125 76.3125 C 312.113281 78.503906 312.105469 80.699219 312.097656 82.890625 C 312.074219 88.261719 312.042969 93.632812 312 99 C 307.050781 99 302.101562 99 297 99 C 296.976562 97.777344 296.949219 96.558594 296.925781 95.300781 C 296.828125 90.765625 296.730469 86.234375 296.628906 81.703125 C 296.585938 79.742188 296.542969 77.78125 296.503906 75.820312 C 296.445312 73 296.382812 70.179688 296.316406 67.359375 C 296.300781 66.484375 296.28125 65.605469 296.265625 64.703125 C 296.234375 63.472656 296.234375 63.472656 296.207031 62.21875 C 296.191406 61.5 296.175781 60.777344 296.160156 60.039062 C 295.996094 57.929688 295.570312 56.03125 295 54 C 293.3125 53.890625 291.625 53.8125 289.9375 53.75 C 288.527344 53.679688 288.527344 53.679688 287.089844 53.609375 C 283.097656 54.113281 279.90625 55.199219 277 58 C 275.960938 61.105469 276.042969 64.105469 276.097656 67.359375 C 276.085938 68.265625 276.074219 69.167969 276.058594 70.101562 C 276.027344 72.984375 276.046875 75.867188 276.0625 78.75 C 276.050781 80.707031 276.03125 82.664062 276.015625 84.621094 C 275.972656 89.414062 275.976562 94.207031 276 99 C 271.050781 99 266.101562 99 261 99 C 260.976562 97.816406 260.949219 96.628906 260.925781 95.40625 C 260.828125 91 260.730469 86.59375 260.628906 82.183594 C 260.585938 80.277344 260.542969 78.371094 260.503906 76.46875 C 260.445312 73.722656 260.382812 70.980469 260.316406 68.238281 C 260.300781 67.390625 260.28125 66.539062 260.265625 65.664062 C 260.167969 61.664062 259.976562 57.90625 259 54 C 257.3125 53.890625 255.625 53.8125 253.9375 53.75 C 252.527344 53.679688 252.527344 53.679688 251.089844 53.609375 C 247.097656 54.113281 243.90625 55.199219 241 58 C 239.960938 61.105469 240.042969 64.105469 240.097656 67.359375 C 240.078125 68.714844 240.078125 68.714844 240.058594 70.101562 C 240.027344 72.984375 240.046875 75.867188 240.0625 78.75 C 240.050781 80.707031 240.03125 82.664062 240.015625 84.621094 C 239.972656 89.414062 239.976562 94.207031 240 99 C 235.050781 99 230.101562 99 225 99 C 225 79.859375 225 60.71875 225 41 C 229.289062 41 233.578125 41 238 41 C 238.328125 42.648438 238.660156 44.300781 239 46 C 239.746094 45.492188 239.746094 45.492188 240.503906 44.976562 C 249.632812 38.984375 258.339844 36.714844 268.335938 41.734375 Z M 268.335938 41.734375 "/>
<path style=" stroke:none;fill-rule:nonzero;fill:rgb(91.37255%,0%,16.862746%);fill-opacity:1;" d="M 59 13 C 60.867188 14.605469 60.867188 14.605469 62 16 C 61.453125 17.257812 60.886719 18.503906 60.3125 19.75 C 60 20.445312 59.6875 21.140625 59.363281 21.859375 C 57.527344 24.742188 55.949219 26.226562 53 28 C 50.121094 28.394531 47.332031 28.242188 44.4375 28.0625 C 38.738281 27.601562 38.738281 27.601562 33.472656 29.496094 C 31.648438 31.023438 31.648438 31.023438 31.875 34.125 C 32.277344 36.851562 32.742188 37.78125 34.871094 39.589844 C 38.496094 41.777344 42.21875 43.636719 46.050781 45.425781 C 54.277344 49.304688 60.117188 53.40625 65 61.1875 C 67.246094 69.75 67.171875 78 62.671875 85.777344 C 57.46875 92.695312 50.519531 96.738281 42 98 C 29.042969 98.953125 17.46875 97.398438 6 91 C 7.425781 87.210938 9.164062 83.730469 11.125 80.1875 C 11.664062 79.210938 12.203125 78.234375 12.757812 77.230469 C 13.167969 76.496094 13.578125 75.757812 14 75 C 14.738281 75.296875 15.480469 75.59375 16.242188 75.898438 C 17.152344 76.261719 18.0625 76.625 19 77 C 19.683594 77.28125 20.367188 77.5625 21.070312 77.851562 C 27.464844 80.257812 34.660156 81.550781 41.261719 79.191406 C 43.382812 78.003906 43.382812 78.003906 44 74.625 C 44.355469 71.097656 44.355469 71.097656 42.613281 69.105469 C 38.046875 65.425781 32.734375 62.988281 27.53125 60.328125 C 19.984375 56.339844 13.0625 51.671875 10.4375 43.160156 C 8.824219 35.195312 9.832031 28.027344 14 21 C 24.96875 7.503906 43.761719 7.601562 59 13 Z M 59 13 "/>
<path style=" stroke:none;fill-rule:nonzero;fill:rgb(99.607843%,47.450981%,0%);fill-opacity:1;" d="M 431 23 C 431 28.941406 431 34.878906 431 41 C 436.609375 41 442.21875 41 448 41 C 446.125 50.75 446.125 50.75 445 53 C 440.378906 53 435.761719 53 431 53 C 431.121094 57.21875 431.242188 61.433594 431.371094 65.652344 C 431.414062 67.085938 431.457031 68.523438 431.496094 69.957031 C 431.554688 72.019531 431.617188 74.082031 431.683594 76.144531 C 431.738281 78.007812 431.738281 78.007812 431.792969 79.90625 C 431.871094 83.035156 431.871094 83.035156 433 86 C 437.515625 86.078125 441.589844 86.101562 446 85 C 446.671875 86.457031 447.335938 87.914062 448 89.375 C 448.558594 90.59375 448.558594 90.59375 449.125 91.835938 C 450 94 450 94 450 96 C 441.90625 99.507812 434.421875 101.722656 425.671875 99.375 C 420.882812 97.386719 418.945312 94.8125 416.792969 90.214844 C 415.515625 86.640625 415.503906 83.324219 415.609375 79.5625 C 415.613281 78.796875 415.621094 78.03125 415.625 77.242188 C 415.648438 74.828125 415.699219 72.414062 415.75 70 C 415.769531 68.351562 415.789062 66.699219 415.804688 65.050781 C 415.847656 61.035156 415.917969 57.015625 416 53 C 414.667969 53.113281 414.667969 53.113281 413.3125 53.226562 C 411.5625 53.367188 411.5625 53.367188 409.777344 53.511719 C 408.621094 53.605469 407.46875 53.703125 406.277344 53.800781 C 403.652344 53.960938 401.179688 53.957031 398.5625 53.8125 C 394.035156 54.050781 392.351562 54.949219 389 58 C 388.105469 61.109375 388.160156 64.140625 388.195312 67.359375 C 388.179688 68.265625 388.167969 69.167969 388.152344 70.101562 C 388.117188 72.984375 388.121094 75.867188 388.125 78.75 C 388.105469 80.707031 388.085938 82.664062 388.0625 84.621094 C 388.011719 89.414062 387.996094 94.207031 388 99 C 383.050781 99 378.101562 99 373 99 C 373 79.859375 373 60.71875 373 41 C 377.289062 41 381.578125 41 386 41 C 386.660156 42.320312 387.320312 43.640625 388 45 C 388.542969 44.652344 389.085938 44.300781 389.644531 43.941406 C 390.359375 43.488281 391.074219 43.03125 391.8125 42.5625 C 392.519531 42.109375 393.226562 41.65625 393.957031 41.191406 C 400.96875 37.101562 408.554688 39.367188 416 41 C 416 36.378906 416 31.761719 416 27 C 428.75 23 428.75 23 431 23 Z M 431 23 "/>
<path style=" stroke:none;fill-rule:nonzero;fill:rgb(99.607843%,47.450981%,0%);fill-opacity:1;" d="M 211 14 C 211 18.949219 211 23.898438 211 29 C 207.523438 28.304688 204.609375 27.566406 201.3125 26.4375 C 195.0625 24.542969 189.183594 23.894531 182.9375 26.0625 C 180.75 27.980469 180.75 27.980469 179.8125 31.25 C 180.070312 36.410156 182.285156 38.574219 186 42 C 188.675781 43.765625 191.476562 45.132812 194.375 46.5 C 203.617188 51.144531 211.535156 55.703125 215 66 C 216.914062 73.144531 215.726562 79.792969 212.25 86.25 C 206.023438 93.859375 199.011719 97.390625 189.1875 98.386719 C 177.964844 98.875 167.949219 97.160156 159 90 C 160.980469 86.039062 162.960938 82.078125 165 78 C 167.878906 79.152344 170.742188 80.339844 173.5625 81.625 C 180.09375 84.054688 187.226562 84.082031 193.6875 81.5625 C 195.867188 80.195312 195.867188 80.195312 197 79 C 197.644531 73.195312 197.644531 73.195312 195.089844 68.0625 C 191.53125 64.066406 186.90625 62.042969 182.1875 59.6875 C 173.5625 55.164062 166.96875 50.9375 162.5 42 C 161.152344 33.90625 161.78125 27.210938 166 20 C 176.492188 7.113281 196.90625 6.953125 211 14 Z M 211 14 "/>
<path style=" stroke:none;fill-rule:nonzero;fill:rgb(99.607843%,47.450981%,0%);fill-opacity:1;" d="M 520 14 C 520 18.949219 520 23.898438 520 29 C 517.527344 28.25 515.050781 27.503906 512.578125 26.753906 C 511.726562 26.503906 510.875 26.257812 510 26 C 509.34375 25.804688 508.691406 25.613281 508.015625 25.414062 C 505.484375 24.894531 503.085938 24.832031 500.5 24.8125 C 499.5625 24.796875 498.625 24.785156 497.65625 24.769531 C 494.90625 25.007812 493.304688 25.507812 491 27 C 489.449219 30.101562 489.710938 32.578125 490 36 C 493.222656 41.503906 498.460938 43.691406 503.9375 46.5 C 509.722656 49.480469 514.699219 52.054688 519 57 C 519.722656 57.804688 520.445312 58.609375 521.1875 59.4375 C 525.277344 65.21875 525.660156 71.121094 525 78 C 523.710938 84.523438 520.261719 89.023438 515 93 C 504.492188 98.847656 492.628906 99.71875 481 96.75 C 476.59375 95.375 472.875 93.496094 469 91 C 470.414062 86.171875 472.429688 82.285156 475 78 C 475.8125 78.359375 476.621094 78.722656 477.457031 79.09375 C 486.078125 82.707031 493.523438 85.019531 502.5625 81.6875 C 505.21875 80.070312 505.21875 80.070312 507 77 C 506.925781 72.996094 506.609375 70.738281 504.035156 67.621094 C 500.355469 64.140625 495.90625 61.871094 491.5 59.4375 C 475.101562 50.308594 475.101562 50.308594 472 41 C 471.160156 32.828125 471.238281 26.023438 476.019531 19.128906 C 487.023438 7.300781 506.121094 7.058594 520 14 Z M 520 14 "/>
<path style=" stroke:none;fill-rule:nonzero;fill:rgb(99.607843%,47.450981%,0%);fill-opacity:1;" d="M 575 39 C 581.171875 45.515625 581.316406 52.335938 581.414062 60.867188 C 581.433594 61.902344 581.453125 62.9375 581.472656 64.003906 C 581.53125 67.292969 581.578125 70.585938 581.625 73.875 C 581.664062 76.113281 581.703125 78.347656 581.742188 80.585938 C 581.839844 86.058594 581.921875 91.527344 582 97 C 577.378906 97 572.761719 97 568 97 C 567.671875 95.351562 567.339844 93.699219 567 92 C 566.261719 92.433594 565.523438 92.867188 564.761719 93.3125 C 557.707031 97.183594 552.070312 99.429688 544 98 C 537.789062 96.160156 533.574219 92.332031 530 87 C 528.027344 81.085938 528.003906 74.367188 530.5625 68.625 C 533.476562 63.601562 537.652344 61.019531 542.875 58.75 C 550.207031 56.988281 557.488281 56.859375 565 57 C 564.574219 55.703125 564.132812 54.414062 563.6875 53.125 C 563.445312 52.40625 563.199219 51.6875 562.949219 50.945312 C 562.035156 48.660156 562.035156 48.660156 559 47 C 551.304688 46 544.285156 47.632812 537 50 C 536.296875 48.757812 535.613281 47.507812 534.9375 46.25 C 534.554688 45.554688 534.171875 44.859375 533.777344 44.140625 C 533 42 533 42 533.054688 39.871094 C 534.472656 37.066406 536.257812 36.78125 539.1875 35.8125 C 551.222656 31.867188 564.53125 30.675781 575 39 Z M 546 72 C 544.820312 75.984375 544.574219 78.066406 546.3125 81.875 C 547.828125 84.089844 547.828125 84.089844 550 85 C 556.242188 85.625 559.695312 83.980469 565 81 C 565 76.710938 565 72.421875 565 68 C 554.785156 67.679688 554.785156 67.679688 546 72 Z M 546 72 "/>
<path style=" stroke:none;fill-rule:nonzero;fill:rgb(99.607843%,47.450981%,0%);fill-opacity:1;" d="M 357 42 C 361.4375 45.722656 364.640625 50.304688 365.214844 56.1875 C 365.328125 58.902344 365.382812 61.613281 365.414062 64.332031 C 365.433594 65.324219 365.453125 66.316406 365.472656 67.335938 C 365.53125 70.496094 365.578125 73.652344 365.625 76.8125 C 365.664062 78.957031 365.703125 81.101562 365.742188 83.25 C 365.839844 88.5 365.921875 93.75 366 99 C 361.710938 99 357.421875 99 353 99 C 352.339844 97.679688 351.679688 96.359375 351 95 C 349.925781 95.640625 348.855469 96.277344 347.75 96.9375 C 342.375 100.140625 337.167969 100.574219 331 100 C 324.335938 97.890625 320.496094 94.78125 317.1875 88.625 C 315.25 82.707031 315.472656 77.644531 317.828125 71.925781 C 320.695312 67.214844 325.160156 64.65625 330.238281 62.84375 C 334.429688 61.902344 338.171875 61.773438 342.4375 61.875 C 343.535156 61.886719 343.535156 61.886719 344.65625 61.902344 C 346.4375 61.925781 348.21875 61.960938 350 62 C 348.898438 56.992188 348.898438 56.992188 345.875 53.0625 C 338.328125 50.273438 331.375 52.722656 324 55 C 323.324219 53.734375 322.660156 52.460938 322 51.1875 C 321.441406 50.125 321.441406 50.125 320.875 49.042969 C 320 47 320 47 320 44 C 321.726562 43.347656 323.457031 42.703125 325.1875 42.0625 C 326.152344 41.703125 327.113281 41.34375 328.105469 40.972656 C 337.359375 37.863281 348.109375 37.5625 357 42 Z M 332 76 C 331.460938 81.199219 331.460938 81.199219 333.125 85.9375 C 336.480469 87.839844 339.355469 88.445312 343.132812 87.421875 C 346.851562 86.195312 346.851562 86.195312 350 84 C 350.074219 81.980469 350.082031 79.957031 350.0625 77.9375 C 350.054688 76.832031 350.042969 75.726562 350.035156 74.589844 C 350.023438 73.734375 350.011719 72.878906 350 72 C 340.230469 71.492188 340.230469 71.492188 332 76 Z M 332 76 "/>
<path style=" stroke:none;fill-rule:nonzero;fill:rgb(99.607843%,47.450981%,0%);fill-opacity:1;" d="M 610 16 C 610 22.269531 610 28.539062 610 35 C 615.941406 35 621.878906 35 628 35 C 626.125 44.625 626.125 44.625 625 48 C 620.050781 48 615.101562 48 610 48 C 610.121094 52.503906 610.242188 57.003906 610.371094 61.507812 C 610.414062 63.039062 610.457031 64.570312 610.496094 66.101562 C 610.554688 68.304688 610.617188 70.503906 610.683594 72.707031 C 610.699219 73.390625 610.71875 74.074219 610.734375 74.78125 C 610.828125 77.769531 611.046875 80.140625 612 83 C 616.484375 84.042969 618.839844 83.910156 623 82 C 623.988281 82 624.980469 82 626 82 C 627.320312 85.628906 628.640625 89.261719 630 93 C 622.808594 98.394531 615.800781 98.753906 607 98 C 601.308594 96.769531 598.21875 93.640625 595 89 C 593.683594 84.898438 593.875 80.78125 593.902344 76.515625 C 593.902344 75.699219 593.90625 74.882812 593.90625 74.042969 C 593.914062 71.445312 593.925781 68.847656 593.9375 66.25 C 593.941406 64.484375 593.945312 62.722656 593.953125 60.957031 C 593.960938 56.636719 593.980469 52.320312 594 48 C 590.371094 48 586.738281 48 583 48 C 583 43.710938 583 39.421875 583 35 C 586.628906 35 590.261719 35 594 35 C 594 30.378906 594 25.761719 594 21 C 607.183594 16 607.183594 16 610 16 Z M 610 16 "/>
</g>
</svg>
